<?xml version="1.0" encoding="UTF-8"?><svg id="Ebene_1" xmlns="http://www.w3.org/2000/svg" viewBox="0 0 1220 200"><path d="m395.87,34.79v49.24h66.13v31.24h-66.13v52.06h74.57v32.08h-113.97V2.71h113.97v32.08h-74.57Z"/><path d="m587.03,199.4l-43.4-76.65h-18.6v76.65h-39.45V2.71h73.83c15.22,0,28.18,2.68,38.89,8.03,10.71,5.35,18.74,12.59,24.09,21.7,5.35,9.11,8.03,19.3,8.03,30.58,0,12.96-3.76,24.66-11.27,35.08-7.52,10.43-18.7,17.61-33.53,21.56l47.06,79.75h-45.65Zm-61.99-106.24h32.97c10.71,0,18.69-2.58,23.95-7.75,5.26-5.16,7.89-12.35,7.89-21.56s-2.63-16.01-7.89-20.99c-5.26-4.98-13.24-7.47-23.95-7.47h-32.97v57.77Z"/><path d="m711.37,5.27c3.51,1.78,6.2,4.34,8.07,7.68,1.86,3.35,2.79,7.33,2.79,11.94s-.93,8.52-2.79,11.85c-1.86,3.32-4.55,5.86-8.07,7.62-3.52,1.76-7.73,2.64-12.64,2.64h-13.15V2.6h13.15c4.91,0,9.12.89,12.64,2.67Zm1.49,33.19c3.24-3.24,4.86-7.76,4.86-13.56s-1.62-10.41-4.86-13.69c-3.24-3.28-7.95-4.92-14.13-4.92h-8.7v37.03h8.7c6.18,0,10.89-1.62,14.13-4.86Z"/><path d="m730.52,20.23c1.42-2.69,3.39-4.76,5.91-6.22,2.52-1.46,5.37-2.19,8.54-2.19s6.15.76,8.54,2.29c2.39,1.52,4.12,3.47,5.18,5.84v-7.62h4.45v34.68h-4.45v-7.69c-1.1,2.37-2.85,4.33-5.24,5.88-2.39,1.55-5.24,2.32-8.54,2.32s-5.96-.74-8.48-2.22c-2.52-1.48-4.49-3.58-5.91-6.29-1.42-2.71-2.13-5.84-2.13-9.4s.71-6.68,2.13-9.37Zm26.45,2.06c-1.14-2.12-2.7-3.75-4.67-4.89-1.97-1.14-4.14-1.71-6.51-1.71s-4.66.55-6.6,1.65c-1.95,1.1-3.48,2.7-4.61,4.8-1.12,2.1-1.68,4.58-1.68,7.46s.56,5.32,1.68,7.46c1.12,2.14,2.66,3.77,4.61,4.89,1.95,1.12,4.15,1.68,6.6,1.68s4.54-.57,6.51-1.71c1.97-1.14,3.52-2.77,4.67-4.89,1.14-2.12,1.72-4.57,1.72-7.37s-.57-5.25-1.72-7.37Z"/><path d="m775.49,44.74c-2.52-1.84-3.93-4.35-4.22-7.53h4.57c.21,1.95,1.13,3.53,2.76,4.73,1.63,1.21,3.82,1.81,6.57,1.81,2.41,0,4.31-.57,5.68-1.71,1.38-1.14,2.06-2.56,2.06-4.26,0-1.19-.38-2.16-1.14-2.92s-1.73-1.37-2.89-1.81c-1.17-.44-2.74-.92-4.73-1.43-2.58-.68-4.68-1.35-6.29-2.03-1.61-.68-2.97-1.68-4.1-3.02-1.12-1.33-1.68-3.12-1.68-5.37,0-1.69.51-3.26,1.52-4.7,1.02-1.44,2.46-2.58,4.32-3.43,1.86-.85,3.98-1.27,6.35-1.27,3.73,0,6.73.94,9.02,2.83,2.29,1.88,3.51,4.48,3.68,7.78h-4.45c-.13-2.03-.92-3.67-2.38-4.92-1.46-1.25-3.46-1.87-6-1.87-2.24,0-4.07.53-5.46,1.59-1.4,1.06-2.1,2.37-2.1,3.94,0,1.36.41,2.47,1.24,3.33.83.87,1.85,1.55,3.08,2.03,1.23.49,2.88,1.03,4.95,1.62,2.5.68,4.49,1.33,5.97,1.97s2.75,1.57,3.81,2.79c1.06,1.23,1.61,2.86,1.65,4.89,0,1.86-.51,3.52-1.52,4.99-1.02,1.46-2.44,2.62-4.26,3.46s-3.92,1.27-6.29,1.27c-3.98,0-7.23-.92-9.75-2.76Z"/><path d="m848.81,36.46h-20.2l-3.87,10.54h-4.7l16.2-43.82h5.02l16.13,43.82h-4.7l-3.87-10.54Zm-1.33-3.68l-8.76-24.01-8.76,24.01h17.53Z"/><path d="m894.54,12.32v34.68h-4.45v-6.1c-1.02,2.16-2.58,3.81-4.7,4.95-2.12,1.14-4.49,1.71-7.11,1.71-4.15,0-7.54-1.28-10.16-3.84-2.63-2.56-3.94-6.28-3.94-11.15V12.32h4.38v19.75c0,3.77.94,6.65,2.83,8.64,1.88,1.99,4.46,2.98,7.72,2.98s6.01-1.06,8-3.18c1.99-2.12,2.99-5.23,2.99-9.34V12.32h4.45Z"/><path d="m927.76,14.1c2.41,1.52,4.15,3.45,5.21,5.78v-7.56h4.45v35.57c0,3.18-.69,5.99-2.06,8.45-1.38,2.46-3.29,4.35-5.75,5.68-2.46,1.33-5.25,2-8.38,2-4.45,0-8.14-1.06-11.08-3.18-2.94-2.12-4.77-5-5.49-8.64h4.38c.76,2.41,2.21,4.34,4.35,5.78,2.14,1.44,4.75,2.16,7.84,2.16,2.24,0,4.25-.48,6.03-1.43,1.78-.95,3.18-2.36,4.19-4.22,1.02-1.86,1.52-4.06,1.52-6.61v-8.57c-1.1,2.37-2.85,4.33-5.24,5.88-2.39,1.55-5.22,2.32-8.48,2.32s-6.02-.74-8.54-2.22c-2.52-1.48-4.49-3.58-5.91-6.29-1.42-2.71-2.13-5.84-2.13-9.4s.71-6.68,2.13-9.37c1.42-2.69,3.39-4.76,5.91-6.22,2.52-1.46,5.37-2.19,8.54-2.19s6.1.76,8.51,2.29Zm3.49,8.19c-1.14-2.12-2.7-3.75-4.67-4.89s-4.14-1.71-6.51-1.71-4.66.55-6.6,1.65c-1.95,1.1-3.48,2.7-4.61,4.8-1.12,2.1-1.68,4.58-1.68,7.46s.56,5.32,1.68,7.46c1.12,2.14,2.66,3.77,4.61,4.89,1.95,1.12,4.15,1.68,6.6,1.68s4.54-.57,6.51-1.71c1.97-1.14,3.52-2.77,4.67-4.89,1.14-2.12,1.72-4.57,1.72-7.37s-.57-5.25-1.72-7.37Z"/><path d="m949.76,44.74c-2.52-1.84-3.93-4.35-4.22-7.53h4.57c.21,1.95,1.13,3.53,2.76,4.73,1.63,1.21,3.82,1.81,6.57,1.81,2.41,0,4.31-.57,5.68-1.71,1.38-1.14,2.06-2.56,2.06-4.26,0-1.19-.38-2.16-1.14-2.92-.76-.76-1.73-1.37-2.89-1.81-1.17-.44-2.74-.92-4.73-1.43-2.58-.68-4.68-1.35-6.29-2.03-1.61-.68-2.97-1.68-4.1-3.02-1.12-1.33-1.68-3.12-1.68-5.37,0-1.69.51-3.26,1.52-4.7,1.02-1.44,2.46-2.58,4.32-3.43,1.86-.85,3.98-1.27,6.35-1.27,3.73,0,6.73.94,9.02,2.83,2.29,1.88,3.51,4.48,3.68,7.78h-4.45c-.13-2.03-.92-3.67-2.38-4.92-1.46-1.25-3.46-1.87-6-1.87-2.24,0-4.07.53-5.46,1.59-1.4,1.06-2.1,2.37-2.1,3.94,0,1.36.41,2.47,1.24,3.33.83.87,1.85,1.55,3.08,2.03,1.23.49,2.88,1.03,4.95,1.62,2.5.68,4.49,1.33,5.97,1.97s2.75,1.57,3.81,2.79c1.06,1.23,1.61,2.86,1.65,4.89,0,1.86-.51,3.52-1.52,4.99-1.02,1.46-2.44,2.62-4.26,3.46s-3.92,1.27-6.29,1.27c-3.98,0-7.23-.92-9.75-2.76Z"/><path d="m989.65,14.1c2.39-1.52,5.22-2.29,8.48-2.29s6.01.73,8.51,2.19c2.5,1.46,4.46,3.54,5.87,6.22,1.42,2.69,2.13,5.81,2.13,9.37s-.71,6.69-2.13,9.4c-1.42,2.71-3.39,4.81-5.91,6.29-2.52,1.48-5.35,2.22-8.48,2.22-3.3,0-6.15-.75-8.54-2.26-2.39-1.5-4.14-3.46-5.24-5.87v7.62h-4.38V0h4.38v20.01c1.14-2.41,2.91-4.38,5.3-5.91Zm18.8,8.03c-1.12-2.1-2.66-3.69-4.6-4.8-1.95-1.1-4.15-1.65-6.6-1.65s-4.54.57-6.51,1.71c-1.97,1.14-3.52,2.77-4.67,4.89-1.14,2.12-1.71,4.57-1.71,7.37s.57,5.25,1.71,7.37c1.14,2.12,2.7,3.75,4.67,4.89,1.97,1.14,4.14,1.71,6.51,1.71s4.66-.56,6.6-1.68c1.95-1.12,3.48-2.75,4.6-4.89,1.12-2.14,1.68-4.63,1.68-7.46s-.56-5.37-1.68-7.46Z"/><path d="m1052.87,12.32v34.68h-4.45v-6.1c-1.02,2.16-2.58,3.81-4.7,4.95-2.12,1.14-4.49,1.71-7.11,1.71-4.15,0-7.54-1.28-10.16-3.84-2.63-2.56-3.94-6.28-3.94-11.15V12.32h4.38v19.75c0,3.77.94,6.65,2.83,8.64,1.88,1.99,4.46,2.98,7.72,2.98s6.01-1.06,8-3.18c1.99-2.12,2.99-5.23,2.99-9.34V12.32h4.45Z"/><path d="m1071.96,13.46c2.01-1.18,4.48-1.78,7.4-1.78v4.64h-1.21c-3.22,0-5.8.87-7.75,2.6-1.95,1.74-2.92,4.64-2.92,8.7v19.37h-4.45V12.32h4.45v6.16c.97-2.16,2.47-3.83,4.48-5.02Z"/><path d="m1109.08,14.1c2.41,1.52,4.15,3.45,5.21,5.78v-7.56h4.45v35.57c0,3.18-.69,5.99-2.06,8.45-1.38,2.46-3.29,4.35-5.75,5.68-2.46,1.33-5.25,2-8.38,2-4.45,0-8.14-1.06-11.08-3.18-2.94-2.12-4.77-5-5.49-8.64h4.38c.76,2.41,2.21,4.34,4.35,5.78,2.14,1.44,4.75,2.16,7.84,2.16,2.24,0,4.25-.48,6.03-1.43,1.78-.95,3.18-2.36,4.19-4.22,1.02-1.86,1.52-4.06,1.52-6.61v-8.57c-1.1,2.37-2.85,4.33-5.24,5.88-2.39,1.55-5.22,2.32-8.48,2.32s-6.02-.74-8.54-2.22c-2.52-1.48-4.49-3.58-5.91-6.29-1.42-2.71-2.13-5.84-2.13-9.4s.71-6.68,2.13-9.37c1.42-2.69,3.39-4.76,5.91-6.22,2.52-1.46,5.37-2.19,8.54-2.19s6.1.76,8.51,2.29Zm3.49,8.19c-1.14-2.12-2.7-3.75-4.67-4.89s-4.14-1.71-6.51-1.71-4.66.55-6.6,1.65c-1.95,1.1-3.48,2.7-4.61,4.8-1.12,2.1-1.68,4.58-1.68,7.46s.56,5.32,1.68,7.46c1.12,2.14,2.66,3.77,4.61,4.89,1.95,1.12,4.15,1.68,6.6,1.68s4.54-.57,6.51-1.71c1.97-1.14,3.52-2.77,4.67-4.89,1.14-2.12,1.72-4.57,1.72-7.37s-.57-5.25-1.72-7.37Z"/><path d="m1160.14,31.38h-28.77c.13,2.63.76,4.87,1.91,6.73,1.14,1.86,2.64,3.27,4.51,4.22,1.86.95,3.9,1.43,6.1,1.43,2.88,0,5.3-.7,7.27-2.1,1.97-1.4,3.27-3.28,3.91-5.65h4.7c-.85,3.39-2.66,6.15-5.43,8.29-2.77,2.14-6.26,3.21-10.45,3.21-3.26,0-6.18-.73-8.76-2.19-2.58-1.46-4.61-3.53-6.07-6.22-1.46-2.69-2.19-5.83-2.19-9.43s.72-6.75,2.16-9.46c1.44-2.71,3.45-4.78,6.03-6.22,2.58-1.44,5.53-2.16,8.83-2.16s6.19.72,8.67,2.16c2.48,1.44,4.38,3.38,5.72,5.81,1.33,2.44,2,5.13,2,8.1,0,1.52-.04,2.69-.13,3.49Zm-5.94-10.23c-1.08-1.82-2.55-3.2-4.41-4.13-1.86-.93-3.9-1.4-6.1-1.4-3.3,0-6.12,1.06-8.45,3.18-2.33,2.12-3.62,5.1-3.87,8.95h24.39c.04-2.58-.48-4.78-1.56-6.61Z"/><path d="m1177.32,13.46c2.01-1.18,4.48-1.78,7.4-1.78v4.64h-1.21c-3.22,0-5.8.87-7.75,2.6-1.95,1.74-2.92,4.64-2.92,8.7v19.37h-4.45V12.32h4.45v6.16c.97-2.16,2.47-3.83,4.48-5.02Z"/><path d="m711.31,112.67h-20.2l-3.87,10.54h-4.59l16.09-43.82h5.02l16.13,43.82h-4.7l-3.87-10.54Zm-1.33-3.68l-8.76-24.01-8.76,24.01h17.53Z"/><path d="m753.42,91.74c2.62,2.56,3.94,6.28,3.94,11.15v20.32h-4.38v-19.82c0-3.77-.94-6.65-2.83-8.64-1.89-1.99-4.46-2.98-7.72-2.98s-6.01,1.06-8,3.18c-1.99,2.12-2.98,5.23-2.98,9.34v18.93h-4.45v-34.68h4.45v5.91c1.1-2.12,2.69-3.74,4.76-4.86,2.07-1.12,4.42-1.68,7.05-1.68,4.15,0,7.54,1.28,10.16,3.84Z"/><path d="m767.3,96.44c1.42-2.69,3.39-4.76,5.91-6.22,2.52-1.46,5.37-2.19,8.54-2.19s6.15.76,8.54,2.29c2.39,1.52,4.12,3.47,5.18,5.84v-7.62h4.45v34.68h-4.45v-7.69c-1.1,2.37-2.85,4.33-5.24,5.88-2.39,1.55-5.24,2.32-8.54,2.32s-5.96-.74-8.48-2.22c-2.52-1.48-4.49-3.58-5.91-6.29-1.42-2.71-2.13-5.84-2.13-9.4s.71-6.68,2.13-9.37Zm26.45,2.06c-1.14-2.12-2.7-3.75-4.67-4.89s-4.14-1.71-6.51-1.71-4.66.55-6.6,1.65c-1.95,1.1-3.48,2.7-4.61,4.8-1.12,2.1-1.68,4.58-1.68,7.46s.56,5.32,1.68,7.46c1.12,2.14,2.66,3.77,4.61,4.89,1.95,1.12,4.15,1.68,6.6,1.68s4.54-.57,6.51-1.71,3.52-2.77,4.67-4.89c1.14-2.12,1.72-4.57,1.72-7.37s-.57-5.25-1.72-7.37Z"/><path d="m814.52,76.21v47h-4.45v-47h4.45Z"/><path d="m853.19,88.54l-20.58,51h-4.64l6.73-16.51-14.23-34.49h4.89l11.81,29.6,11.43-29.6h4.57Z"/><path d="m861.42,120.96c-2.52-1.84-3.93-4.35-4.22-7.53h4.57c.21,1.95,1.13,3.53,2.76,4.73,1.63,1.21,3.82,1.81,6.57,1.81,2.41,0,4.31-.57,5.68-1.71,1.38-1.14,2.06-2.56,2.06-4.26,0-1.19-.38-2.16-1.14-2.92-.76-.76-1.73-1.37-2.89-1.81-1.17-.44-2.74-.92-4.73-1.43-2.58-.68-4.68-1.35-6.29-2.03-1.61-.68-2.97-1.68-4.1-3.02-1.12-1.33-1.68-3.12-1.68-5.37,0-1.69.51-3.26,1.52-4.7,1.02-1.44,2.46-2.58,4.32-3.43,1.86-.85,3.98-1.27,6.35-1.27,3.73,0,6.73.94,9.02,2.83,2.29,1.88,3.51,4.48,3.68,7.78h-4.45c-.13-2.03-.92-3.67-2.38-4.92-1.46-1.25-3.46-1.87-6-1.87-2.24,0-4.07.53-5.46,1.59-1.4,1.06-2.1,2.37-2.1,3.94,0,1.36.41,2.47,1.24,3.33.83.87,1.85,1.55,3.08,2.03,1.23.49,2.88,1.03,4.95,1.62,2.5.68,4.49,1.33,5.97,1.97s2.75,1.57,3.81,2.79c1.06,1.23,1.61,2.86,1.65,4.89,0,1.86-.51,3.52-1.52,4.99-1.02,1.46-2.44,2.62-4.26,3.46-1.82.85-3.92,1.27-6.29,1.27-3.98,0-7.23-.92-9.75-2.76Z"/><path d="m922.87,107.59h-28.77c.13,2.63.76,4.87,1.91,6.73,1.14,1.86,2.64,3.27,4.51,4.22,1.86.95,3.9,1.43,6.1,1.43,2.88,0,5.3-.7,7.27-2.1,1.97-1.4,3.27-3.28,3.91-5.65h4.7c-.85,3.39-2.66,6.15-5.43,8.29-2.77,2.14-6.26,3.21-10.45,3.21-3.26,0-6.18-.73-8.76-2.19-2.58-1.46-4.61-3.53-6.07-6.22-1.46-2.69-2.19-5.83-2.19-9.43s.72-6.75,2.16-9.46c1.44-2.71,3.45-4.78,6.03-6.22,2.58-1.44,5.53-2.16,8.83-2.16s6.19.72,8.67,2.16c2.48,1.44,4.38,3.38,5.72,5.81,1.33,2.44,2,5.13,2,8.1,0,1.52-.04,2.69-.13,3.49Zm-5.94-10.23c-1.08-1.82-2.55-3.2-4.41-4.13-1.86-.93-3.9-1.4-6.1-1.4-3.3,0-6.12,1.06-8.45,3.18-2.33,2.12-3.62,5.1-3.87,8.95h24.39c.04-2.58-.48-4.78-1.56-6.61Z"/><path d="m952.65,97.81v3.75h-24.71v-3.75h24.71Z"/><path d="m1011.53,88.54v34.68h-4.45v-6.1c-1.02,2.16-2.58,3.81-4.7,4.95-2.12,1.14-4.49,1.71-7.11,1.71-4.15,0-7.54-1.28-10.16-3.84-2.63-2.56-3.94-6.28-3.94-11.15v-20.26h4.38v19.75c0,3.77.94,6.65,2.83,8.64,1.88,1.99,4.46,2.98,7.72,2.98s6.01-1.06,8-3.18c1.99-2.12,2.99-5.23,2.99-9.34v-18.86h4.45Z"/><path d="m1048.11,91.74c2.62,2.56,3.94,6.28,3.94,11.15v20.32h-4.38v-19.82c0-3.77-.94-6.65-2.83-8.64-1.89-1.99-4.46-2.98-7.72-2.98s-6.01,1.06-8,3.18c-1.99,2.12-2.98,5.23-2.98,9.34v18.93h-4.45v-34.68h4.45v5.91c1.1-2.12,2.69-3.74,4.76-4.86,2.07-1.12,4.42-1.68,7.05-1.68,4.15,0,7.54,1.28,10.16,3.84Z"/><path d="m1062.02,96.44c1.44-2.69,3.42-4.76,5.94-6.22,2.52-1.46,5.37-2.19,8.54-2.19s5.8.74,8.26,2.22c2.46,1.48,4.26,3.41,5.4,5.78v-19.82h4.45v47h-4.45v-7.75c-1.06,2.41-2.79,4.39-5.21,5.94-2.41,1.55-5.25,2.32-8.51,2.32s-6.02-.74-8.54-2.22c-2.52-1.48-4.49-3.58-5.91-6.29-1.42-2.71-2.13-5.84-2.13-9.4s.72-6.68,2.16-9.37Zm26.42,2.06c-1.14-2.12-2.7-3.75-4.67-4.89-1.97-1.14-4.14-1.71-6.51-1.71s-4.66.55-6.6,1.65c-1.95,1.1-3.48,2.7-4.61,4.8-1.12,2.1-1.68,4.58-1.68,7.46s.56,5.32,1.68,7.46c1.12,2.14,2.66,3.77,4.61,4.89,1.95,1.12,4.15,1.68,6.6,1.68s4.54-.57,6.51-1.71c1.97-1.14,3.52-2.77,4.67-4.89,1.14-2.12,1.72-4.57,1.72-7.37s-.57-5.25-1.72-7.37Z"/><path d="m690.03,158.65v16.58h16.83v3.68h-16.83v16.83h18.74v3.68h-23.18v-44.46h23.18v3.68h-18.74Z"/><path d="m729.85,195.11l11.69-30.36h4.7l-13.91,34.68h-5.02l-13.91-34.68h4.76l11.69,30.36Z"/><path d="m752.37,172.66c1.42-2.69,3.39-4.76,5.91-6.22,2.52-1.46,5.37-2.19,8.54-2.19s6.15.76,8.54,2.29c2.39,1.52,4.12,3.47,5.18,5.84v-7.62h4.45v34.68h-4.45v-7.69c-1.1,2.37-2.85,4.33-5.24,5.88-2.39,1.55-5.24,2.32-8.54,2.32s-5.96-.74-8.48-2.22c-2.52-1.48-4.49-3.58-5.91-6.29-1.42-2.71-2.13-5.84-2.13-9.4s.71-6.68,2.13-9.37Zm26.45,2.06c-1.14-2.12-2.7-3.75-4.67-4.89s-4.14-1.71-6.51-1.71-4.66.55-6.6,1.65c-1.95,1.1-3.48,2.7-4.61,4.8-1.12,2.1-1.68,4.58-1.68,7.46s.56,5.32,1.68,7.46c1.12,2.14,2.66,3.77,4.61,4.89,1.95,1.12,4.15,1.68,6.6,1.68s4.54-.57,6.51-1.71,3.52-2.77,4.67-4.89c1.14-2.12,1.72-4.57,1.72-7.37s-.57-5.25-1.72-7.37Z"/><path d="m799.59,152.43v47h-4.45v-47h4.45Z"/><path d="m839.73,164.75v34.68h-4.45v-6.1c-1.02,2.16-2.58,3.81-4.7,4.95-2.12,1.14-4.49,1.71-7.11,1.71-4.15,0-7.54-1.28-10.16-3.84-2.63-2.56-3.94-6.28-3.94-11.15v-20.26h4.38v19.75c0,3.77.94,6.65,2.83,8.64,1.88,1.99,4.46,2.98,7.72,2.98s6.01-1.06,8-3.18c1.99-2.12,2.99-5.23,2.99-9.34v-18.86h4.45Z"/><path d="m849.99,172.66c1.42-2.69,3.39-4.76,5.91-6.22,2.52-1.46,5.37-2.19,8.54-2.19s6.15.76,8.54,2.29c2.39,1.52,4.12,3.47,5.18,5.84v-7.62h4.45v34.68h-4.45v-7.69c-1.1,2.37-2.85,4.33-5.24,5.88-2.39,1.55-5.24,2.32-8.54,2.32s-5.96-.74-8.48-2.22c-2.52-1.48-4.49-3.58-5.91-6.29-1.42-2.71-2.13-5.84-2.13-9.4s.71-6.68,2.13-9.37Zm26.45,2.06c-1.14-2.12-2.7-3.75-4.67-4.89-1.97-1.14-4.14-1.71-6.51-1.71s-4.66.55-6.6,1.65c-1.95,1.1-3.48,2.7-4.61,4.8-1.12,2.1-1.68,4.58-1.68,7.46s.56,5.32,1.68,7.46c1.12,2.14,2.66,3.77,4.61,4.89,1.95,1.12,4.15,1.68,6.6,1.68s4.54-.57,6.51-1.71,3.52-2.77,4.67-4.89c1.14-2.12,1.72-4.57,1.72-7.37s-.57-5.25-1.72-7.37Z"/><path d="m898.54,168.5v21.53c0,2.12.4,3.58,1.21,4.38.8.81,2.22,1.21,4.25,1.21h4.07v3.81h-4.76c-3.13,0-5.46-.73-6.99-2.19-1.52-1.46-2.29-3.86-2.29-7.21v-21.53h-4.83v-3.75h4.83v-8.7h4.51v8.7h9.53v3.75h-9.53Z"/><path d="m915.31,157.26c-.63-.64-.95-1.42-.95-2.35s.32-1.7.95-2.32c.64-.61,1.4-.92,2.29-.92s1.65.31,2.29.92c.64.61.95,1.39.95,2.32s-.32,1.71-.95,2.35c-.63.64-1.4.95-2.29.95s-1.65-.32-2.29-.95Zm4.51,7.49v34.68h-4.45v-34.68h4.45Z"/><path d="m936.3,197.75c-2.6-1.46-4.66-3.53-6.16-6.22-1.5-2.69-2.25-5.83-2.25-9.43s.76-6.74,2.29-9.43c1.52-2.69,3.6-4.76,6.22-6.22,2.62-1.46,5.57-2.19,8.83-2.19s6.21.73,8.86,2.19c2.65,1.46,4.72,3.54,6.22,6.22,1.5,2.69,2.25,5.83,2.25,9.43s-.76,6.69-2.29,9.4c-1.52,2.71-3.62,4.8-6.29,6.26s-5.63,2.19-8.89,2.19-6.19-.73-8.8-2.19Zm15.15-3.24c1.95-1.04,3.52-2.6,4.73-4.7,1.21-2.1,1.81-4.67,1.81-7.72s-.59-5.62-1.78-7.72c-1.18-2.1-2.75-3.66-4.7-4.7-1.95-1.04-4.06-1.56-6.35-1.56s-4.4.52-6.35,1.56c-1.95,1.04-3.5,2.6-4.67,4.7-1.17,2.1-1.75,4.67-1.75,7.72s.58,5.62,1.75,7.72c1.16,2.1,2.71,3.66,4.64,4.7,1.93,1.04,4.03,1.56,6.32,1.56s4.4-.52,6.35-1.56Z"/><path d="m997.11,167.96c2.62,2.56,3.94,6.28,3.94,11.15v20.32h-4.38v-19.82c0-3.77-.94-6.65-2.83-8.64-1.89-1.99-4.46-2.98-7.72-2.98s-6.01,1.06-8,3.18c-1.99,2.12-2.98,5.23-2.98,9.34v18.93h-4.45v-34.68h4.45v5.91c1.1-2.12,2.69-3.74,4.76-4.86,2.07-1.12,4.42-1.68,7.05-1.68,4.15,0,7.54,1.28,10.16,3.84Z"/><path d="m1013.08,197.17c-2.52-1.84-3.93-4.35-4.22-7.53h4.57c.21,1.95,1.13,3.53,2.76,4.73,1.63,1.21,3.82,1.81,6.57,1.81,2.41,0,4.31-.57,5.68-1.71,1.38-1.14,2.06-2.56,2.06-4.26,0-1.19-.38-2.16-1.14-2.92s-1.73-1.37-2.89-1.81c-1.17-.44-2.74-.92-4.73-1.43-2.58-.68-4.68-1.35-6.29-2.03-1.61-.68-2.97-1.68-4.1-3.02-1.12-1.33-1.68-3.12-1.68-5.37,0-1.69.51-3.26,1.52-4.7,1.02-1.44,2.46-2.58,4.32-3.43,1.86-.85,3.98-1.27,6.35-1.27,3.73,0,6.73.94,9.02,2.83,2.29,1.88,3.51,4.48,3.68,7.78h-4.45c-.13-2.03-.92-3.67-2.38-4.92-1.46-1.25-3.46-1.87-6-1.87-2.24,0-4.07.53-5.46,1.59-1.4,1.06-2.1,2.37-2.1,3.94,0,1.36.41,2.47,1.24,3.33.83.87,1.85,1.55,3.08,2.03,1.23.49,2.88,1.03,4.95,1.62,2.5.68,4.49,1.33,5.97,1.97s2.75,1.57,3.81,2.79c1.06,1.23,1.61,2.86,1.65,4.89,0,1.86-.51,3.52-1.52,4.99-1.02,1.46-2.44,2.62-4.26,3.46s-3.92,1.27-6.29,1.27c-3.98,0-7.23-.92-9.75-2.76Z"/><path d="m1052.21,165.89c2.01-1.18,4.48-1.78,7.4-1.78v4.64h-1.21c-3.22,0-5.8.87-7.75,2.6-1.95,1.74-2.92,4.64-2.92,8.7v19.37h-4.45v-34.68h4.45v6.16c.97-2.16,2.47-3.83,4.48-5.02Z"/><path d="m1066.37,172.66c1.42-2.69,3.39-4.76,5.91-6.22,2.52-1.46,5.37-2.19,8.54-2.19s6.15.76,8.54,2.29c2.39,1.52,4.12,3.47,5.18,5.84v-7.62h4.45v34.68h-4.45v-7.69c-1.1,2.37-2.85,4.33-5.24,5.88-2.39,1.55-5.24,2.32-8.54,2.32s-5.96-.74-8.48-2.22c-2.52-1.48-4.49-3.58-5.91-6.29-1.42-2.71-2.13-5.84-2.13-9.4s.71-6.68,2.13-9.37Zm26.45,2.06c-1.14-2.12-2.7-3.75-4.67-4.89-1.97-1.14-4.14-1.71-6.51-1.71s-4.66.55-6.6,1.65c-1.95,1.1-3.48,2.7-4.61,4.8-1.12,2.1-1.68,4.58-1.68,7.46s.56,5.32,1.68,7.46c1.12,2.14,2.66,3.77,4.61,4.89,1.95,1.12,4.15,1.68,6.6,1.68s4.54-.57,6.51-1.71c1.97-1.14,3.52-2.77,4.67-4.89,1.14-2.12,1.72-4.57,1.72-7.37s-.57-5.25-1.72-7.37Z"/><path d="m1111.34,197.17c-2.52-1.84-3.93-4.35-4.22-7.53h4.57c.21,1.95,1.13,3.53,2.76,4.73,1.63,1.21,3.82,1.81,6.57,1.81,2.41,0,4.31-.57,5.68-1.71,1.38-1.14,2.06-2.56,2.06-4.26,0-1.19-.38-2.16-1.14-2.92s-1.73-1.37-2.89-1.81c-1.17-.44-2.74-.92-4.73-1.43-2.58-.68-4.68-1.35-6.29-2.03-1.61-.68-2.97-1.68-4.1-3.02-1.12-1.33-1.68-3.12-1.68-5.37,0-1.69.51-3.26,1.52-4.7,1.02-1.44,2.46-2.58,4.32-3.43,1.86-.85,3.98-1.27,6.35-1.27,3.73,0,6.73.94,9.02,2.83,2.29,1.88,3.51,4.48,3.68,7.78h-4.45c-.13-2.03-.92-3.67-2.38-4.92-1.46-1.25-3.46-1.87-6-1.87-2.24,0-4.07.53-5.46,1.59-1.4,1.06-2.1,2.37-2.1,3.94,0,1.36.41,2.47,1.24,3.33.83.87,1.85,1.55,3.08,2.03,1.23.49,2.88,1.03,4.95,1.62,2.5.68,4.49,1.33,5.97,1.97s2.75,1.57,3.81,2.79c1.06,1.23,1.61,2.86,1.65,4.89,0,1.86-.51,3.52-1.52,4.99-1.02,1.46-2.44,2.62-4.26,3.46s-3.92,1.27-6.29,1.27c-3.98,0-7.23-.92-9.75-2.76Z"/><path d="m1147.31,168.5v21.53c0,2.12.4,3.58,1.21,4.38.8.81,2.22,1.21,4.25,1.21h4.07v3.81h-4.76c-3.13,0-5.46-.73-6.99-2.19-1.52-1.46-2.29-3.86-2.29-7.21v-21.53h-4.83v-3.75h4.83v-8.7h4.51v8.7h9.53v3.75h-9.53Z"/><path d="m1195.39,183.8h-28.77c.13,2.63.76,4.87,1.91,6.73,1.14,1.86,2.64,3.27,4.51,4.22,1.86.95,3.9,1.43,6.1,1.43,2.88,0,5.3-.7,7.27-2.1,1.97-1.4,3.27-3.28,3.91-5.65h4.7c-.85,3.39-2.66,6.15-5.43,8.29-2.77,2.14-6.26,3.21-10.45,3.21-3.26,0-6.18-.73-8.76-2.19-2.58-1.46-4.61-3.53-6.07-6.22-1.46-2.69-2.19-5.83-2.19-9.43s.72-6.75,2.16-9.46c1.44-2.71,3.45-4.78,6.03-6.22,2.58-1.44,5.53-2.16,8.83-2.16s6.19.72,8.67,2.16c2.48,1.44,4.38,3.38,5.72,5.81,1.33,2.44,2,5.13,2,8.1,0,1.52-.04,2.69-.13,3.49Zm-5.94-10.23c-1.08-1.82-2.55-3.2-4.41-4.13-1.86-.93-3.9-1.4-6.1-1.4-3.3,0-6.12,1.06-8.45,3.18-2.33,2.12-3.62,5.1-3.87,8.95h24.39c.04-2.58-.48-4.78-1.56-6.61Z"/><path d="m1212.57,165.89c2.01-1.18,4.48-1.78,7.4-1.78v4.64h-1.21c-3.22,0-5.8.87-7.75,2.6-1.95,1.74-2.92,4.64-2.92,8.7v19.37h-4.45v-34.68h4.45v6.16c.97-2.16,2.47-3.83,4.48-5.02Z"/><g id="Logo_Zentrum_für_Digitales_Lehren_und_Lernen"><path d="m0,199.27L122.07,2.71v.55-.55h46.05v196.56h-46.05l-53.41-33.01-20.39,33.01H0Zm122.07-39.53v-79.9l-35.65,57.85,35.65,22.06Z"/></g><g id="Logo_Zentrum_für_Digitales_Lehren_und_Lernen-2"><path d="m173.2,199.27L295.28,2.71v.55-.55h46.05v196.56h-46.05l-53.41-33.01-20.39,33.01h-48.27Zm122.07-39.53v-79.9l-35.65,57.85,35.65,22.06Z"/></g></svg>